<?xml version="1.0" encoding="UTF-8" standalone="no"?>
<!-- Created with Inkscape (http://www.inkscape.org/) -->
<svg xmlns:rdf="http://www.w3.org/1999/02/22-rdf-syntax-ns#" xmlns="http://www.w3.org/2000/svg" height="12.175mm" width="104.62mm" version="1.1" xmlns:cc="http://creativecommons.org/ns#" xmlns:dc="http://purl.org/dc/elements/1.1/" viewBox="0 0 104.62128 12.175066">
 <metadata>
  <rdf:RDF>
   <cc:Work rdf:about="">
    <dc:format>image/svg+xml</dc:format>
    <dc:type rdf:resource="http://purl.org/dc/dcmitype/StillImage"/>
    <dc:title/>
   </cc:Work>
  </rdf:RDF>
 </metadata>
 <g transform="translate(0 -284.82)">
  <g aria-label="ttl-mem-cache">
   <path style="stroke-width:.26458px" d="m4.9784 296.56q-.49107.32173-1.1345.32173-2.4384 0-2.4384-2.5061v-5.2832h-1.4055v-.88054h1.4055v-2.1505h1.0499v2.1505h2.4553v.88054h-2.4554v5.334q0 1.4732 1.3716 1.4732.67733 0 1.1515-.38947z"/>
   <path style="stroke-width:.26458px" d="m11.13 296.56q-.49107.32173-1.1345.32173-2.4384 0-2.4384-2.5061v-5.2832h-1.4055v-.88054h1.4055v-2.1505h1.0499v2.1505h2.4553v.88054h-2.4551v5.334q0 1.4732 1.3716 1.4732.67733 0 1.1515-.38947z"/>
   <path style="stroke-width:.26458px" d="m14.267 296.8h-1.0329v-11.972h1.0329z"/>
   <path style="stroke-width:.26458px" d="m20.443 292.68h-3.81v-.93133h3.81z"/>
   <path style="stroke-width:.26458px" d="m33.951 296.8h-1.0329v-5.6727q0-2.0489-1.7949-2.0489-.88053 0-1.5748.8128-.67733.8128-.67733 2.1675v4.7413h-1.033v-5.6727q0-2.0489-1.7949-2.0489-.88053 0-1.5748.8128-.67733.8128-.67733 2.1675v4.7413h-1.033v-8.5852h1.0329v1.4055q.72813-1.5409 2.4045-1.5409 2.0659 0 2.54 1.6933.79587-1.6933 2.54-1.6933 1.3547 0 2.0151.762.6604.74506.6604 1.9643z"/>
   <path style="stroke-width:.26458px" d="m42.564 296.37q-1.016.508-2.3707.508-1.9135 0-3.1157-1.1853-1.1853-1.2023-1.1853-3.1496 0-2.0659 1.0499-3.2512t2.7263-1.1853q1.5748 0 2.5061 1.0329.93133 1.0329.93133 2.9125 0 .57573-.06773.9144h-6.0621q.11853 1.4224.98213 2.1844.8636.74507 2.286.74507 1.4563 0 2.3199-.57574zm-2.9295-7.2983q-1.0837 0-1.8119.762-.72813.762-.84667 2.1844h5.0631v-.38946q0-1.1684-.6604-1.8627-.64347-.69427-1.7441-.69427z"/>
   <path style="stroke-width:.26458px" d="m56.407 296.8h-1.033v-5.6727q0-2.0489-1.7949-2.0489-.88053 0-1.5748.8128-.67733.8128-.67733 2.1675v4.7413h-1.033v-5.6727q0-2.0489-1.7949-2.0489-.88053 0-1.5748.8128-.67733.8128-.67733 2.1675v4.7413h-1.033v-8.5852h1.0329v1.4055q.72813-1.5409 2.4045-1.5409 2.0659 0 2.54 1.6933.79587-1.6933 2.54-1.6933 1.3547 0 2.0151.762.6604.74506.6604 1.9643z"/>
   <path style="stroke-width:.26458px" d="m62.413 292.68h-3.81v-.93133h3.81z"/>
   <path style="fill:#a0892c" d="m70.502 296.51q-.72813.49106-1.8796.49106-2.0828 0-3.2512-1.3039-1.1684-1.3208-1.1684-3.1665 0-1.7949 1.1853-3.1327 1.2023-1.3377 3.2343-1.3377 1.0499 0 1.8796.4572v1.0499q-.762-.508-1.778-.508-1.5748 0-2.5061 1.0329-.93133 1.016-.93133 2.4553 0 1.4563.89747 2.4553.89747.99907 2.5569.99907 1.0329 0 1.7611-.54187z"/>
   <path style="fill:#a0892c" d="m75.22 295.93q1.016 0 1.6256-.5588t.6096-1.4224v-1.2361h-1.6764q-1.2023 0-1.7949.47413-.59267.4572-.59267 1.1515 0 .7112.4572 1.1515.47413.44026 1.3716.44026zm2.2352-.13546q-.7112 1.0837-2.4723 1.0837-1.1853 0-1.9473-.69427-.74507-.7112-.74507-1.8119 0-1.2361.94827-1.9135.9652-.69427 2.54-.69427h1.6764v-.38946q0-1.1515-.49107-1.7272-.49107-.59267-1.6425-.59267-1.3377 0-2.4045.72813v-1.1176q.98213-.59266 2.4215-.59266 3.1496 0 3.1496 3.302v5.4187h-1.0329z"/>
   <path style="fill:#a0892c" d="m86.74 296.51q-.72813.49106-1.8796.49106-2.0828 0-3.2512-1.3039-1.1684-1.3208-1.1684-3.1665 0-1.7949 1.1853-3.1327 1.2023-1.3377 3.2343-1.3377 1.0499 0 1.8796.4572v1.0499q-.762-.508-1.778-.508-1.5748 0-2.5061 1.0329-.93133 1.016-.93133 2.4553 0 1.4563.89747 2.4553.89747.99907 2.5569.99907 1.0329 0 1.7611-.54187z"/>
   <path style="fill:#a0892c" d="m95.455 296.8h-1.033v-5.6727q0-.99907-.508-1.524-.508-.52494-1.3377-.52494-1.0499 0-1.8119.8128-.762.79587-.762 2.1675v4.7413h-1.0329v-11.972h1.0329v4.8599q.77893-1.6087 2.7263-1.6087 1.2361 0 1.9812.762.74507.762.74507 1.9643z"/>
   <path style="fill:#a0892c" d="m104.08 296.37q-1.016.508-2.3707.508-1.9135 0-3.1157-1.1853-1.1853-1.2023-1.1853-3.1496 0-2.0659 1.0499-3.2512t2.7263-1.1853q1.5748 0 2.5061 1.0329.93133 1.0329.93133 2.9125 0 .57573-.0677.9144h-6.0621q.11853 1.4224.98213 2.1844.86360.74507 2.286.74507 1.4563 0 2.3199-.57574zm-2.9295-7.2983q-1.0837 0-1.8119.762-.72813.762-.84667 2.1844h5.0631v-.38946q0-1.1684-.6604-1.8627-.64346-.69427-1.7441-.69427z"/>
  </g>
 </g>
</svg>
